<svg xmlns="http://www.w3.org/2000/svg" width="1400" height="820" viewBox="0 0 1400 820">
<rect width="1400" height="820" fill="#ffffff"/>
<text x="700.0" y="44.0" text-anchor="middle" font-family="Arial, sans-serif" font-size="28" font-weight="700" fill="#111827">Model Performance Comparison</text>
<text x="700.0" y="72.0" text-anchor="middle" font-family="Arial, sans-serif" font-size="15" font-weight="400" fill="#111827">Accuracy, F1 Score, and ROC-AUC for six classifier runs</text>
<line x1="110.0" y1="650.0" x2="1340.0" y2="650.0" stroke="#e5e7eb" stroke-width="1"/>
<text x="94.0" y="655.0" text-anchor="end" font-family="Arial, sans-serif" font-size="13" font-weight="400" fill="#111827">0.0</text>
<line x1="110.0" y1="540.0" x2="1340.0" y2="540.0" stroke="#e5e7eb" stroke-width="1"/>
<text x="94.0" y="545.0" text-anchor="end" font-family="Arial, sans-serif" font-size="13" font-weight="400" fill="#111827">0.2</text>
<line x1="110.0" y1="430.0" x2="1340.0" y2="430.0" stroke="#e5e7eb" stroke-width="1"/>
<text x="94.0" y="435.0" text-anchor="end" font-family="Arial, sans-serif" font-size="13" font-weight="400" fill="#111827">0.4</text>
<line x1="110.0" y1="320.0" x2="1340.0" y2="320.0" stroke="#e5e7eb" stroke-width="1"/>
<text x="94.0" y="325.0" text-anchor="end" font-family="Arial, sans-serif" font-size="13" font-weight="400" fill="#111827">0.6</text>
<line x1="110.0" y1="210.0" x2="1340.0" y2="210.0" stroke="#e5e7eb" stroke-width="1"/>
<text x="94.0" y="215.0" text-anchor="end" font-family="Arial, sans-serif" font-size="13" font-weight="400" fill="#111827">0.8</text>
<line x1="110.0" y1="100.0" x2="1340.0" y2="100.0" stroke="#e5e7eb" stroke-width="1"/>
<text x="94.0" y="105.0" text-anchor="end" font-family="Arial, sans-serif" font-size="13" font-weight="400" fill="#111827">1.0</text>
<line x1="110.0" y1="100.0" x2="110.0" y2="650.0" stroke="#6b7280" stroke-width="1.5"/>
<line x1="110.0" y1="650.0" x2="1340.0" y2="650.0" stroke="#6b7280" stroke-width="1.5"/>
<rect x="145.5" y="336.5" width="38.0" height="313.5" fill="#2563eb"/>
<text x="164.5" y="328.5" text-anchor="middle" font-family="Arial, sans-serif" font-size="11" font-weight="400" fill="#111827">0.570</text>
<rect x="193.5" y="327.4" width="38.0" height="322.6" fill="#dc2626"/>
<text x="212.5" y="319.4" text-anchor="middle" font-family="Arial, sans-serif" font-size="11" font-weight="400" fill="#111827">0.587</text>
<rect x="241.5" y="314.4" width="38.0" height="335.6" fill="#16a34a"/>
<text x="260.5" y="306.4" text-anchor="middle" font-family="Arial, sans-serif" font-size="11" font-weight="400" fill="#111827">0.610</text>
<text x="212.5" y="678.0" text-anchor="end" transform="rotate(-28 212.5 678.0)" font-family="Arial, sans-serif" font-size="13" fill="#111827">RF_base</text>
<rect x="323.0" y="90.0" width="189.0" height="570.0" fill="#fef3c7" opacity="0.55" rx="6"/>
<text x="417.5" y="80.0" text-anchor="middle" font-family="Arial, sans-serif" font-size="13" font-weight="700" fill="#111827">Best model</text>
<rect x="350.5" y="325.5" width="38.0" height="324.5" fill="#2563eb"/>
<text x="369.5" y="317.5" text-anchor="middle" font-family="Arial, sans-serif" font-size="11" font-weight="400" fill="#111827">0.590</text>
<rect x="398.5" y="312.7" width="38.0" height="337.3" fill="#dc2626"/>
<text x="417.5" y="304.7" text-anchor="middle" font-family="Arial, sans-serif" font-size="11" font-weight="400" fill="#111827">0.613</text>
<rect x="446.5" y="301.7" width="38.0" height="348.3" fill="#16a34a"/>
<text x="465.5" y="293.7" text-anchor="middle" font-family="Arial, sans-serif" font-size="11" font-weight="400" fill="#111827">0.633</text>
<text x="417.5" y="678.0" text-anchor="end" transform="rotate(-28 417.5 678.0)" font-family="Arial, sans-serif" font-size="13" fill="#111827">RF_tuned</text>
<rect x="555.5" y="325.5" width="38.0" height="324.5" fill="#2563eb"/>
<text x="574.5" y="317.5" text-anchor="middle" font-family="Arial, sans-serif" font-size="11" font-weight="400" fill="#111827">0.590</text>
<rect x="603.5" y="316.8" width="38.0" height="333.2" fill="#dc2626"/>
<text x="622.5" y="308.8" text-anchor="middle" font-family="Arial, sans-serif" font-size="11" font-weight="400" fill="#111827">0.606</text>
<rect x="651.5" y="303.7" width="38.0" height="346.3" fill="#16a34a"/>
<text x="670.5" y="295.7" text-anchor="middle" font-family="Arial, sans-serif" font-size="11" font-weight="400" fill="#111827">0.630</text>
<text x="622.5" y="678.0" text-anchor="end" transform="rotate(-28 622.5 678.0)" font-family="Arial, sans-serif" font-size="13" fill="#111827">SVM_base</text>
<rect x="760.5" y="333.8" width="38.0" height="316.2" fill="#2563eb"/>
<text x="779.5" y="325.8" text-anchor="middle" font-family="Arial, sans-serif" font-size="11" font-weight="400" fill="#111827">0.575</text>
<rect x="808.5" y="330.3" width="38.0" height="319.7" fill="#dc2626"/>
<text x="827.5" y="322.3" text-anchor="middle" font-family="Arial, sans-serif" font-size="11" font-weight="400" fill="#111827">0.581</text>
<rect x="856.5" y="322.8" width="38.0" height="327.2" fill="#16a34a"/>
<text x="875.5" y="314.8" text-anchor="middle" font-family="Arial, sans-serif" font-size="11" font-weight="400" fill="#111827">0.595</text>
<text x="827.5" y="678.0" text-anchor="end" transform="rotate(-28 827.5 678.0)" font-family="Arial, sans-serif" font-size="13" fill="#111827">SVM_tuned</text>
<rect x="965.5" y="325.5" width="38.0" height="324.5" fill="#2563eb"/>
<text x="984.5" y="317.5" text-anchor="middle" font-family="Arial, sans-serif" font-size="11" font-weight="400" fill="#111827">0.590</text>
<rect x="1013.5" y="327.8" width="38.0" height="322.2" fill="#dc2626"/>
<text x="1032.5" y="319.8" text-anchor="middle" font-family="Arial, sans-serif" font-size="11" font-weight="400" fill="#111827">0.586</text>
<rect x="1061.5" y="307.0" width="38.0" height="343.0" fill="#16a34a"/>
<text x="1080.5" y="299.0" text-anchor="middle" font-family="Arial, sans-serif" font-size="11" font-weight="400" fill="#111827">0.624</text>
<text x="1032.5" y="678.0" text-anchor="end" transform="rotate(-28 1032.5 678.0)" font-family="Arial, sans-serif" font-size="13" fill="#111827">LR_base</text>
<rect x="1170.5" y="325.5" width="38.0" height="324.5" fill="#2563eb"/>
<text x="1189.5" y="317.5" text-anchor="middle" font-family="Arial, sans-serif" font-size="11" font-weight="400" fill="#111827">0.590</text>
<rect x="1218.5" y="323.2" width="38.0" height="326.8" fill="#dc2626"/>
<text x="1237.5" y="315.2" text-anchor="middle" font-family="Arial, sans-serif" font-size="11" font-weight="400" fill="#111827">0.594</text>
<rect x="1266.5" y="312.0" width="38.0" height="338.0" fill="#16a34a"/>
<text x="1285.5" y="304.0" text-anchor="middle" font-family="Arial, sans-serif" font-size="11" font-weight="400" fill="#111827">0.615</text>
<text x="1237.5" y="678.0" text-anchor="end" transform="rotate(-28 1237.5 678.0)" font-family="Arial, sans-serif" font-size="13" fill="#111827">LR_tuned</text>
<rect x="110.0" y="755.0" width="18" height="18" fill="#2563eb"/>
<text x="138.0" y="769.0" text-anchor="start" font-family="Arial, sans-serif" font-size="14" font-weight="400" fill="#111827">Accuracy</text>
<rect x="280.0" y="755.0" width="18" height="18" fill="#dc2626"/>
<text x="308.0" y="769.0" text-anchor="start" font-family="Arial, sans-serif" font-size="14" font-weight="400" fill="#111827">F1</text>
<rect x="450.0" y="755.0" width="18" height="18" fill="#16a34a"/>
<text x="478.0" y="769.0" text-anchor="start" font-family="Arial, sans-serif" font-size="14" font-weight="400" fill="#111827">ROC-AUC</text>
<text x="1340.0" y="790.0" text-anchor="end" font-family="Arial, sans-serif" font-size="12" font-weight="400" fill="#111827">Source: reports/figures/model_comparison.csv</text>
</svg>